<svg width="360" height="489" viewBox="0 0 360 489" fill="none" xmlns="http://www.w3.org/2000/svg">
<path d="M277.705 275.213C278.459 275.213 278.836 275.615 278.836 276.418V292.271C278.836 293.092 278.459 293.499 277.705 293.499C273.804 293.499 270.44 292.359 267.619 290.073C264.793 292.767 260.947 294.113 256.071 294.113C250.806 294.113 246.838 292.282 244.167 288.609C241.563 291.869 237.672 293.499 232.485 293.499H229.049V297.279C229.049 308.099 226.744 316.274 222.133 321.802C217.523 327.33 210.745 330.094 201.807 330.094C192.879 330.094 186.113 327.33 181.502 321.802C176.891 316.274 174.586 308.099 174.586 297.279V290.451H190.036V297.279C190.036 302.081 191.023 305.695 193.006 308.123C194.985 310.562 197.916 311.785 201.807 311.785C205.708 311.785 208.645 310.562 210.629 308.123C212.607 305.695 213.599 302.081 213.599 297.279V261.794H229.049V275.213H233.97C235.655 275.213 236.497 273.997 236.497 271.551V258.132H251.948V272.024C251.948 274.546 252.901 275.804 254.807 275.804C256.713 275.804 257.667 274.546 257.667 272.024V261.794H273.117V270.819C273.117 272.189 273.516 273.27 274.314 274.056C275.112 274.829 276.242 275.213 277.705 275.213Z" fill="white"/>
<path d="M300.113 238.618C306.064 238.618 310.869 240.591 314.521 244.524C318.184 248.464 320.018 253.644 320.018 260.07V293.499H277.68C276.915 293.499 276.527 293.092 276.527 292.271V276.418C276.527 275.615 276.915 275.213 277.68 275.213H304.568V270.323H283.177C282.568 268.705 282.075 266.838 281.692 264.724C281.304 262.598 281.116 260.684 281.116 258.983C281.116 252.888 282.85 247.974 286.325 244.241C289.794 240.496 294.394 238.618 300.113 238.618ZM304.568 259.337V258.983C304.568 257.365 304.108 256.101 303.194 255.203C302.274 254.305 301.21 253.856 300.002 253.856C298.772 253.856 297.702 254.305 296.788 255.203C295.868 256.101 295.413 257.365 295.413 258.983V259.337H304.568ZM299.182 224.963C299.182 226.841 298.528 228.448 297.231 229.782C295.945 231.123 294.421 231.791 292.665 231.791C290.902 231.791 289.412 231.123 288.187 229.782C286.973 228.448 286.369 226.841 286.369 224.963C286.369 223.091 286.996 221.508 288.254 220.214C289.506 218.909 290.98 218.253 292.665 218.253C294.421 218.253 295.945 218.927 297.231 220.262C298.528 221.602 299.182 223.167 299.182 224.963ZM313.723 224.963C313.723 226.841 313.091 228.448 311.839 229.782C310.581 231.123 309.074 231.791 307.317 231.791C305.555 231.791 304.047 231.123 302.795 229.782C301.537 228.448 300.911 226.841 300.911 224.963C300.911 223.167 301.537 221.602 302.795 220.262C304.047 218.927 305.555 218.253 307.317 218.253C309.074 218.253 310.581 218.909 311.839 220.214C313.091 221.508 313.723 223.091 313.723 224.963Z" fill="white"/>
<mask id="mask0_2355_216" style="mask-type:luminance" maskUnits="userSpaceOnUse" x="139" y="232" width="72" height="76">
<path d="M139.997 232.594H210.221V307.438H139.997V232.594Z" fill="white"/>
</mask>
<g mask="url(#mask0_2355_216)">
<path d="M175.031 232.576C155.669 232.576 139.975 249.303 139.975 269.933C139.975 290.564 155.669 307.29 175.031 307.29C194.388 307.29 210.082 290.564 210.082 269.933C210.082 249.303 194.388 232.576 175.031 232.576ZM162.934 257.347L185.716 252.404C187.467 252.404 188.891 253.916 188.891 255.782V257.583H161.798C162.152 257.436 162.535 257.347 162.934 257.347ZM192.116 280.937C192.116 282.803 190.692 284.321 188.941 284.321H161.116C159.37 284.321 157.946 282.803 157.946 280.937V263.549C157.946 261.682 159.37 260.17 161.116 260.17H188.941C190.692 260.17 192.116 261.682 192.116 263.549V265.592H183.837C182.163 265.592 180.806 267.045 180.806 268.823V275.131C180.806 276.914 182.163 278.361 183.837 278.361H192.116V280.937ZM193.64 275.131C193.64 275.491 193.369 275.78 193.036 275.78H183.837C183.499 275.78 183.227 275.491 183.227 275.131V268.823C183.227 268.469 183.499 268.179 183.837 268.179H193.036C193.369 268.179 193.64 268.469 193.64 268.823V275.131Z" fill="white"/>
</g>
<mask id="mask1_2355_216" style="mask-type:luminance" maskUnits="userSpaceOnUse" x="118" y="213" width="93" height="82">
<path d="M118.451 213.192H210.664V294.84H118.451V213.192Z" fill="white"/>
</mask>
<g mask="url(#mask1_2355_216)">
<mask id="mask2_2355_216" style="mask-type:luminance" maskUnits="userSpaceOnUse" x="115" y="188" width="96" height="107">
<path d="M115.142 257.684L167.333 188.906L210.353 225.985L158.162 294.763L115.142 257.684Z" fill="white"/>
</mask>
<g mask="url(#mask2_2355_216)">
<mask id="mask3_2355_216" style="mask-type:luminance" maskUnits="userSpaceOnUse" x="94" y="189" width="118" height="134">
<path d="M94.998 284.232L167.256 189.006L211.933 227.515L139.669 322.741L94.998 284.232Z" fill="white"/>
</mask>
<g mask="url(#mask3_2355_216)">
<path d="M212.337 227.308L204.235 237.986C185.045 221.443 156.799 224.627 141.282 245.08C125.76 265.533 128.747 295.637 147.938 312.181L139.836 322.859C115.114 301.555 111.268 262.787 131.257 236.445C151.252 210.103 187.622 206.004 212.337 227.308Z" fill="white"/>
</g>
</g>
</g>
<path d="M74.3595 286.87H69.2002C63.8359 286.87 61.0484 283.35 61.0484 274.774C61.0484 273.12 61.2535 244.085 61.5638 225.168L39.1699 226.378L40.1009 284.124C40.511 304.577 47.0114 312.497 63.6308 312.497H71.7826L74.3595 286.87Z" fill="white"/>
<path d="M66.8276 312.497H70.8509C78.7976 312.497 85.298 311.399 90.9727 309.308C101.291 317.778 112.541 322.509 119.867 322.509C125.547 322.509 130.191 320.524 133.904 315.25C137.307 310.407 139.684 302.929 139.684 295.34C139.684 280.491 130.496 266.08 115.533 247.493L108.412 253.653C106.04 252.555 103.458 252.006 100.676 252.006C89.5263 252.006 77.4566 262.566 77.4566 279.942C77.4566 282.139 77.6616 284.342 78.2823 286.652C76.4203 286.758 74.4641 286.87 72.2973 286.87H69.3048L66.8276 312.497ZM91.283 274.662C91.283 272.134 93.0397 270.705 95.5168 270.705C102.117 270.705 107.797 276.753 107.797 280.161C107.797 282.364 103.874 284.342 96.9577 285.222C93.0397 280.71 91.283 277.633 91.283 274.662ZM123.79 300.401C123.79 301.937 123.38 303.366 122.555 304.471C118.941 302.929 115.123 300.177 110.274 296.438C113.572 293.798 116.154 290.609 117.7 286.433C121.729 291.932 123.79 296.332 123.79 300.401Z" fill="white"/>
</svg>
